{
  "accessors": [
    {
      "bufferView": 2,
      "componentType": 5126,
      "count": 65532,
      "max": [
        0.37473800778388977,
        0.03645100072026253,
        1.663450002670288
      ],
      "min": [
        -0.37740200757980347,
        -0.29051199555397034,
        -0.00048600000445730984
      ],
      "type": "VEC3"
    },
    {
      "bufferView": 2,
      "byteOffset": 786384,
      "componentType": 5126,
      "count": 65532,
      "max": [
        0.9999935030937195,
        0.9999979734420776,
        0.9999969005584717
      ],
      "min": [
        -0.9999610185623169,
        -0.9999629855155945,
        -0.9999993443489075
      ],
      "type": "VEC3"
    },
    {
      "bufferView": 1,
      "componentType": 5126,
      "count": 65532,
      "max": [
        0.9979990124702454,
        2.992039918899536
      ],
      "min": [
        0.5020099878311157,
        2.502500057220459
      ],
      "type": "VEC2"
    },
    {
      "bufferView": 0,
      "componentType": 5125,
      "count": 153267,
      "type": "SCALAR"
    },
    {
      "bufferView": 2,
      "byteOffset": 1572768,
      "componentType": 5126,
      "count": 65532,
      "max": [
        0.3749450147151947,
        0.03687100112438202,
        1.6635500192642212
      ],
      "min": [
        -0.3754040002822876,
        -0.29051199555397034,
        -0.00048600000445730984
      ],
      "type": "VEC3"
    },
    {
      "bufferView": 2,
      "byteOffset": 2359152,
      "componentType": 5126,
      "count": 65532,
      "max": [
        0.9999935030937195,
        0.9999979734420776,
        0.9999225735664368
      ],
      "min": [
        -0.9999610185623169,
        -0.9999308586120605,
        -0.9999998211860657
      ],
      "type": "VEC3"
    },
    {
      "bufferView": 1,
      "byteOffset": 524256,
      "componentType": 5126,
      "count": 65532,
      "max": [
        0.9979990124702454,
        2.992039918899536
      ],
      "min": [
        0.5033419728279114,
        2.5020198822021484
      ],
      "type": "VEC2"
    },
    {
      "bufferView": 0,
      "byteOffset": 613068,
      "componentType": 5125,
      "count": 143802,
      "type": "SCALAR"
    },
    {
      "bufferView": 2,
      "byteOffset": 3145536,
      "componentType": 5126,
      "count": 65532,
      "max": [
        0.3749450147151947,
        0.03687100112438202,
        1.6635500192642212
      ],
      "min": [
        -0.37740200757980347,
        -0.287445992231369,
        -0.00048600000445730984
      ],
      "type": "VEC3"
    },
    {
      "bufferView": 2,
      "byteOffset": 3931920,
      "componentType": 5126,
      "count": 65532,
      "max": [
        0.9999884963035583,
        0.9999813437461853,
        0.9998385906219482
      ],
      "min": [
        -0.9999675750732422,
        -0.9999629855155945,
        -0.9999998211860657
      ],
      "type": "VEC3"
    },
    {
      "bufferView": 1,
      "byteOffset": 1048512,
      "componentType": 5126,
      "count": 65532,
      "max": [
        0.9979990124702454,
        2.992039918899536
      ],
      "min": [
        0.5051270127296448,
        2.5028600692749023
      ],
      "type": "VEC2"
    },
    {
      "bufferView": 0,
      "byteOffset": 1188276,
      "componentType": 5125,
      "count": 142185,
      "type": "SCALAR"
    },
    {
      "bufferView": 2,
      "byteOffset": 4718304,
      "componentType": 5126,
      "count": 4013,
      "max": [
        0.36879101395606995,
        0.03544199839234352,
        1.661520004272461
      ],
      "min": [
        -0.37714898586273193,
        -0.2900030016899109,
        -0.00023200000578071922
      ],
      "type": "VEC3"
    },
    {
      "bufferView": 2,
      "byteOffset": 4766460,
      "componentType": 5126,
      "count": 4013,
      "max": [
        0.9998205900192261,
        0.9999604821205139,
        0.9996628761291504
      ],
      "min": [
        -0.9998421669006348,
        -0.9998263716697693,
        -0.9999825358390808
      ],
      "type": "VEC3"
    },
    {
      "bufferView": 1,
      "byteOffset": 1572768,
      "componentType": 5126,
      "count": 4013,
      "max": [
        0.9941859841346741,
        2.9839699268341064
      ],
      "min": [
        0.502161979675293,
        2.5053699016571045
      ],
      "type": "VEC2"
    },
    {
      "bufferView": 0,
      "byteOffset": 1757016,
      "componentType": 5125,
      "count": 7854,
      "type": "SCALAR"
    }
  ],
  "asset": {
    "extras": {
      "author": "bliptonjr (https://sketchfab.com/bliptonjr)",
      "license": "CC-BY-4.0 (http://creativecommons.org/licenses/by/4.0/)",
      "source": "https://sketchfab.com/3d-models/downloadable-girl-01-8f3606c62d9e4a67a5aae08c4280f4ac",
      "title": "Downloadable Girl 01"
    },
    "generator": "Sketchfab-15.37.0",
    "version": "2.0"
  },
  "bufferViews": [
    {
      "buffer": 0,
      "byteLength": 1788432,
      "name": "floatBufferViews",
      "target": 34963
    },
    {
      "buffer": 0,
      "byteLength": 1604872,
      "byteOffset": 1788432,
      "byteStride": 8,
      "name": "floatBufferViews",
      "target": 34962
    },
    {
      "buffer": 0,
      "byteLength": 4814616,
      "byteOffset": 3393304,
      "byteStride": 12,
      "name": "floatBufferViews",
      "target": 34962
    }
  ],
  "buffers": [
    {
      "byteLength": 8207920,
      "uri": "scene.bin"
    }
  ],
  "images": [
    {
      "uri": "textures/material_baseColor.jpeg"
    }
  ],
  "materials": [
    {
      "doubleSided": true,
      "name": "material",
      "pbrMetallicRoughness": {
        "baseColorTexture": {
          "index": 0
        },
        "metallicFactor": 0.0,
        "roughnessFactor": 0.8434915419926713
      }
    }
  ],
  "meshes": [
    {
      "name": "Object_0",
      "primitives": [
        {
          "attributes": {
            "NORMAL": 1,
            "POSITION": 0,
            "TEXCOORD_0": 2
          },
          "indices": 3,
          "material": 0,
          "mode": 4
        }
      ]
    },
    {
      "name": "Object_1",
      "primitives": [
        {
          "attributes": {
            "NORMAL": 5,
            "POSITION": 4,
            "TEXCOORD_0": 6
          },
          "indices": 7,
          "material": 0,
          "mode": 4
        }
      ]
    },
    {
      "name": "Object_2",
      "primitives": [
        {
          "attributes": {
            "NORMAL": 9,
            "POSITION": 8,
            "TEXCOORD_0": 10
          },
          "indices": 11,
          "material": 0,
          "mode": 4
        }
      ]
    },
    {
      "name": "Object_3",
      "primitives": [
        {
          "attributes": {
            "NORMAL": 13,
            "POSITION": 12,
            "TEXCOORD_0": 14
          },
          "indices": 15,
          "material": 0,
          "mode": 4
        }
      ]
    }
  ],
  "nodes": [
    {
      "children": [
        1
      ],
      "matrix": [
        1.0,
        0.0,
        0.0,
        0.0,
        0.0,
        2.220446049250313e-16,
        -1.0,
        0.0,
        0.0,
        1.0,
        2.220446049250313e-16,
        0.0,
        0.0,
        0.0,
        0.0,
        1.0
      ],
      "name": "Sketchfab_model"
    },
    {
      "children": [
        2,
        3,
        4,
        5
      ],
      "name": "model.obj.cleaner.materialmerger.gles"
    },
    {
      "mesh": 0,
      "name": "Object_2"
    },
    {
      "mesh": 1,
      "name": "Object_3"
    },
    {
      "mesh": 2,
      "name": "Object_4"
    },
    {
      "mesh": 3,
      "name": "Object_5"
    }
  ],
  "samplers": [
    {
      "magFilter": 9729,
      "minFilter": 9987,
      "wrapS": 10497,
      "wrapT": 10497
    }
  ],
  "scene": 0,
  "scenes": [
    {
      "name": "Sketchfab_Scene",
      "nodes": [
        0
      ]
    }
  ],
  "textures": [
    {
      "sampler": 0,
      "source": 0
    }
  ]
}
